<svg width="24" height="24" viewBox="0 0 24 24" fill="none" xmlns="http://www.w3.org/2000/svg">
<path fill-rule="evenodd" clip-rule="evenodd" d="M2.25 12C2.25 10.2098 2.96116 8.4929 4.22703 7.22703C5.4929 5.96116 7.20979 5.25 9 5.25H17C18.2598 5.25 19.468 5.75045 20.3588 6.64124C21.2496 7.53204 21.75 8.74022 21.75 10C21.75 11.2598 21.2496 12.468 20.3588 13.3588C19.468 14.2496 18.2598 14.75 17 14.75H8.857C8.12766 14.75 7.42818 14.4603 6.91246 13.9445C6.39673 13.4288 6.107 12.7293 6.107 12C6.107 11.2707 6.39673 10.5712 6.91246 10.0555C7.42818 9.53973 8.12766 9.25 8.857 9.25H16.714C16.9129 9.25 17.1037 9.32902 17.2443 9.46967C17.385 9.61032 17.464 9.80109 17.464 10C17.464 10.1989 17.385 10.3897 17.2443 10.5303C17.1037 10.671 16.9129 10.75 16.714 10.75H8.857C8.52548 10.75 8.20754 10.8817 7.97312 11.1161C7.7387 11.3505 7.607 11.6685 7.607 12C7.607 12.3315 7.7387 12.6495 7.97312 12.8839C8.20754 13.1183 8.52548 13.25 8.857 13.25H17C17.862 13.25 18.6886 12.9076 19.2981 12.2981C19.9076 11.6886 20.25 10.862 20.25 10C20.25 9.13805 19.9076 8.3114 19.2981 7.7019C18.6886 7.09241 17.862 6.75 17 6.75H9C7.60761 6.75 6.27225 7.30312 5.28769 8.28769C4.30312 9.27225 3.75 10.6076 3.75 12C3.75 13.3924 4.30312 14.7277 5.28769 15.7123C6.27225 16.6969 7.60761 17.25 9 17.25H16.714C16.9129 17.25 17.1037 17.329 17.2443 17.4697C17.385 17.6103 17.464 17.8011 17.464 18C17.464 18.1989 17.385 18.3897 17.2443 18.5303C17.1037 18.671 16.9129 18.75 16.714 18.75H9C7.20979 18.75 5.4929 18.0388 4.22703 16.773C2.96116 15.5071 2.25 13.7902 2.25 12Z" fill="#818181"/>
</svg>