<svg width="16" height="16" viewBox="0 0 16 16" fill="none" xmlns="http://www.w3.org/2000/svg">
<path d="M2.5 4H1.5C1.36739 4 1.24021 3.94732 1.14645 3.85355C1.05268 3.75979 1 3.63261 1 3.5C1 3.36739 1.05268 3.24022 1.14645 3.14645C1.24021 3.05268 1.36739 3 1.5 3H5.5V1.499C5.5 1.36639 5.55268 1.23922 5.64645 1.14545C5.74021 1.05168 5.86739 0.999001 6 0.999001H10C10.1326 0.999001 10.2598 1.05168 10.3536 1.14545C10.4473 1.23922 10.5 1.36639 10.5 1.499V3H14.5C14.6326 3 14.7598 3.05268 14.8536 3.14645C14.9473 3.24022 15 3.36739 15 3.5C15 3.63261 14.9473 3.75979 14.8536 3.85355C14.7598 3.94732 14.6326 4 14.5 4H13.5V14.5C13.5 14.6326 13.4473 14.7598 13.3536 14.8536C13.2598 14.9473 13.1326 15 13 15H3C2.86739 15 2.74021 14.9473 2.64645 14.8536C2.55268 14.7598 2.5 14.6326 2.5 14.5V4ZM9.5 3V2H6.5V3H9.5ZM3.5 14H12.5V4H3.5V14ZM6.5 12C6.36739 12 6.24021 11.9473 6.14645 11.8536C6.05268 11.7598 6 11.6326 6 11.5V6.5C6 6.36739 6.05268 6.24021 6.14645 6.14645C6.24021 6.05268 6.36739 6 6.5 6C6.63261 6 6.75979 6.05268 6.85355 6.14645C6.94732 6.24021 7 6.36739 7 6.5V11.5C7 11.6326 6.94732 11.7598 6.85355 11.8536C6.75979 11.9473 6.63261 12 6.5 12ZM9.5 12C9.36739 12 9.24021 11.9473 9.14645 11.8536C9.05268 11.7598 9 11.6326 9 11.5V6.5C9 6.36739 9.05268 6.24021 9.14645 6.14645C9.24021 6.05268 9.36739 6 9.5 6C9.63261 6 9.75979 6.05268 9.85355 6.14645C9.94732 6.24021 10 6.36739 10 6.5V11.5C10 11.6326 9.94732 11.7598 9.85355 11.8536C9.75979 11.9473 9.63261 12 9.5 12Z" fill="#D72F42"/>
</svg>
