<svg width="184" height="35" viewBox="0 0 184 35" fill="none" xmlns="http://www.w3.org/2000/svg">
<path d="M161.023 34.9463V33.7171H162.724V34.9463H161.023ZM168.005 33.4187V33.4844C168.005 34.3078 167.659 35 165.916 35C164.174 35 163.876 34.3018 163.876 33.3591V31.8076C163.876 31.0618 164.281 30.3159 165.988 30.3159C167.832 30.3159 168.005 31.1215 168.005 31.6823V31.8614H166.543V31.6883C166.543 31.3363 166.441 31.0916 165.946 31.0916C165.451 31.0916 165.349 31.3005 165.349 31.6883V33.6514C165.349 33.9677 165.451 34.2481 165.946 34.2481C166.441 34.2481 166.543 34.0214 166.543 33.6514V33.4187H168.005ZM173.208 31.7778V33.5261C173.208 34.4987 172.408 35 171.006 35C169.604 35 168.816 34.4928 168.816 33.5321V31.742C168.816 30.7634 169.741 30.3159 171.048 30.3159C172.355 30.3159 173.208 30.847 173.208 31.8017V31.7778ZM170.308 31.7241V33.5679C170.308 33.9319 170.499 34.2004 171.018 34.2004C171.537 34.2004 171.716 33.9736 171.716 33.55V31.748C171.716 31.4019 171.555 31.1513 171.018 31.1513C170.481 31.1513 170.308 31.3542 170.308 31.748V31.7241ZM174.252 31.7241C174.252 30.8231 174.252 30.6202 174.252 30.4054H175.666C175.704 30.5373 175.725 30.6738 175.726 30.8112C175.9 30.6435 176.107 30.5147 176.335 30.4334C176.562 30.3522 176.804 30.3202 177.045 30.3398C177.269 30.3105 177.497 30.3403 177.706 30.4261C177.916 30.5119 178.099 30.6508 178.238 30.8291C178.431 30.6539 178.657 30.5201 178.903 30.436C179.15 30.3518 179.411 30.3191 179.67 30.3398C180.494 30.3398 181.162 30.5904 181.162 31.4795V34.9522H179.67V31.6286C179.67 31.3124 179.527 31.1334 179.103 31.1334C178.584 31.1334 178.453 31.384 178.453 31.8315V34.9343H176.949V31.6644C176.949 31.2527 176.746 31.1513 176.394 31.1513C175.857 31.1513 175.744 31.4019 175.744 31.8315V34.9522H174.234L174.252 31.7241Z" fill="#C80000"/>
<path d="M4.26038 5.17735H0V1.35852H12.6558V5.17735H8.35369V27.9412H4.26038V5.17735ZM26.7199 13.2566C26.7199 10.47 26.7199 8.60237 26.6781 7.32544H30.5745C30.6828 7.99625 30.7367 8.67471 30.7356 9.3542C31.0471 8.62068 31.5779 8.00151 32.2552 7.58165C32.9325 7.1618 33.7232 6.96183 34.5187 7.0092C37.4245 7.0092 38.7731 9.03795 38.7731 13.0597V21.485C38.7731 26.2167 37.2217 28.2455 34.0771 28.2455C33.4248 28.2883 32.7736 28.1472 32.1976 27.8381C31.6217 27.529 31.144 27.0644 30.8192 26.4972V34.8509H26.7199V13.2566ZM30.8192 21.0553C30.8192 23.1259 31.213 24.5997 32.7286 24.5997C34.2442 24.5997 34.6738 23.4063 34.6738 21.5327V13.4177C34.6738 11.5441 34.0771 10.7087 32.8837 10.7087C31.565 10.7087 30.8132 11.5083 30.8132 13.895L30.8192 21.0553ZM17.9008 7.0092C14.3206 7.0092 11.7727 9.03795 11.7727 13.4952V21.6162C11.7727 25.9542 13.7657 28.2574 17.7874 28.2574C21.642 28.2574 23.8319 25.99 23.8319 21.5745V13.6563C23.8677 9.3184 21.6182 7.0092 17.9008 7.0092ZM19.7326 21.6938C19.7326 23.6032 19.2195 24.6355 17.8232 24.6355C16.4269 24.6355 15.872 23.4063 15.872 21.7714V15.518H14.4042L17.8351 10.661L21.2243 15.518H19.7445L19.7326 21.6938Z" fill="white"/>
<path d="M23.3964 34.8688H4.2605V33.7172H23.3964V34.8688ZM157.706 33.7172H34.1369V34.8688H157.706V33.7172Z" fill="#C80000"/>
<path d="M41.6074 1.35852H47.2999C51.3633 1.35852 53.7441 2.98749 53.7441 7.76103V8.75154C53.7441 12.8508 52.0376 13.8891 51.0411 14.3246C52.5508 15.0407 53.4697 16.1565 53.4697 19.7784C53.4697 22.0041 53.4279 26.342 53.7083 27.9352H49.7284C49.4122 26.342 49.448 21.9683 49.448 20.0171C49.448 16.789 49.0482 16.0372 46.6614 16.0372H45.7067V27.9412H41.6074V1.35852ZM45.7067 12.6599H46.6614C48.8155 12.6599 49.6091 11.8663 49.6091 8.96038V8.04147C49.6091 5.97692 49.2093 4.74177 46.8643 4.74177H45.7067V12.6599ZM60.081 18.7461V21.7714C60.081 23.3645 60.4808 24.7966 62.0322 24.7966C63.5836 24.7966 63.8461 23.3228 63.8461 21.8549V21.7714H67.8261V21.8549C67.8261 24.003 67.3845 28.2574 62.0919 28.2574C56.7992 28.2574 56.0891 24.9935 56.0891 20.8883V14.0919C56.0891 11.2636 56.9663 7.0092 62.0978 7.0092C66.4776 7.0092 67.9096 9.99266 67.9096 14.0502V18.7461H60.081ZM63.9834 15.524V13.4177C63.9834 11.5083 63.5418 10.47 62.068 10.47C60.7553 10.47 60.1228 11.4247 60.1228 13.4177V15.518L63.9834 15.524ZM70.6783 13.2983C70.6783 9.19906 70.6783 8.28015 70.6365 7.33141H74.5389C74.6354 7.9374 74.6872 8.54967 74.694 9.16326C75.0261 8.49395 75.5448 7.93503 76.1875 7.55388C76.8301 7.17273 77.5693 6.98564 78.3159 7.01516C79.0379 6.9551 79.7587 7.14285 80.3596 7.54744C80.9606 7.95203 81.4057 8.54932 81.6216 9.24083C82.0108 8.54436 82.584 7.96835 83.2786 7.57581C83.9732 7.18327 84.7624 6.98931 85.5598 7.01516C87.8272 7.01516 89.659 8.16678 89.659 12.1885V27.9412H85.5598V12.9403C85.5598 11.5083 85.16 10.7087 84.0084 10.7087C82.5763 10.7087 82.2183 11.8245 82.2183 13.8533V27.9412H78.0773V13.0239C78.0773 11.1562 77.5223 10.7147 76.5676 10.7147C75.0938 10.7147 74.7775 11.8305 74.7775 13.7817V27.9412H70.6783V13.2983ZM104.594 13.6563V21.5745C104.594 25.99 102.404 28.2574 98.5498 28.2574C94.5281 28.2574 92.5351 25.9542 92.5351 21.6162V13.4952C92.5351 9.03795 95.083 7.0092 98.6631 7.0092C102.369 7.0092 104.594 9.3184 104.594 13.6563ZM96.6642 13.4177V21.7714C96.6642 23.4063 97.1833 24.6355 98.6154 24.6355C100.047 24.6355 100.525 23.6032 100.525 21.6938V13.4177C100.525 11.8245 100.089 10.6669 98.6154 10.6669C97.2609 10.6669 96.6642 11.6216 96.6642 13.4177ZM105.901 7.32544H108.097V2.3908H112.178V7.32544H114.762V10.9474H112.178V23.1259C112.178 24.0806 112.298 24.8801 113.527 24.8801C113.903 24.8892 114.278 24.8471 114.643 24.7548V27.8218C113.849 28.1492 112.994 28.2979 112.136 28.2574C109.589 28.2574 108.079 27.422 108.079 23.8419V10.9474H105.883L105.901 7.32544ZM120.192 18.7461V21.7714C120.192 23.3645 120.592 24.7966 122.143 24.7966C123.694 24.7966 123.975 23.3228 123.975 21.8549V21.7714H127.955V21.8549C127.955 24.003 127.519 28.2574 122.227 28.2574C116.934 28.2574 116.188 24.9935 116.188 20.8883V14.0919C116.188 11.2636 117.059 7.0092 122.197 7.0092C126.576 7.0092 128.008 9.99266 128.008 14.0502V18.7461H120.192ZM124.094 15.524V13.4177C124.094 11.5083 123.659 10.47 122.185 10.47C120.872 10.47 120.234 11.4247 120.234 13.4177V15.518L124.094 15.524Z" fill="#C80000"/>
<path d="M133.659 20.1006V21.7713C133.659 23.7225 134.256 24.8383 135.807 24.8383C137.359 24.8383 137.836 23.3227 137.836 21.6162C137.836 18.7461 137.203 17.8749 134.375 15.6075C131.547 13.3401 129.96 11.902 129.96 7.96387C129.96 4.46129 131.034 0.916934 135.849 0.916934C140.664 0.916934 141.5 4.41952 141.5 7.32541V8.75747H137.442V7.44475C137.442 5.5771 137.12 4.46129 135.771 4.46129C134.423 4.46129 134.059 5.6129 134.059 7.36718C134.059 9.27659 134.417 10.1895 136.768 11.902C140.742 14.8497 141.977 16.5204 141.977 20.9777C141.977 24.7548 140.664 28.3409 135.688 28.3409C130.711 28.3409 129.56 25.1963 129.56 21.6938V20.1006H133.659ZM143.099 7.32541H145.289V2.39076H149.388V7.32541H151.972V10.9473H149.388V23.1258C149.388 24.0805 149.507 24.8801 150.736 24.8801C151.112 24.8896 151.488 24.8475 151.852 24.7548V27.8218C151.059 28.1491 150.203 28.2978 149.346 28.2574C146.798 28.2574 145.289 27.422 145.289 23.8419V10.9473H143.099V7.32541ZM165.069 23.7225C165.069 25.0352 165.111 27.1475 165.147 27.9411H161.411C161.328 27.5413 161.208 26.706 161.167 26.4315C160.451 27.7025 159.341 28.2574 157.748 28.2574C154.645 28.2574 153.41 25.3933 153.41 22.2905V21.9324C153.41 16.8367 156.835 15.4822 160.534 15.4822H161.011V12.8567C161.011 11.2636 160.815 10.3506 159.579 10.3506C158.344 10.3506 158.064 11.3053 158.064 12.5823V12.8985H154.048V12.6598C154.048 9.67638 155.2 7.00916 159.735 7.00916C163.679 7.00916 165.069 9.23483 165.069 12.5405V23.7225ZM161.107 18.591H160.433C158.565 18.591 157.33 19.307 157.33 21.8907V22.2129C157.33 23.6449 157.843 24.6772 159.12 24.6772C160.51 24.6772 161.107 23.7225 161.107 20.9777V18.591ZM181.174 7.32541V5.77401C181.174 4.62239 181.49 3.74526 182.689 3.74526C182.915 3.73975 183.14 3.75373 183.364 3.78702V0.165102C182.867 0.0383979 182.354 -0.0158649 181.842 0.00399485C178.059 0.00399485 177.068 2.55187 177.068 5.53533V7.32541H172.933V5.65467C172.933 4.46129 173.13 3.74526 174.485 3.74526C174.71 3.74077 174.936 3.75473 175.159 3.78702V0.165102C174.649 0.0573274 174.129 0.0033299 173.608 0.00399485C169.866 0.00399485 168.834 2.349 168.834 5.29666V7.32541H166.805V10.9473H168.834V27.9411H175.052L172.933 25.7334V15.6373L174.998 13.6563L172.933 11.6753V10.9473H177.068V11.6753L174.998 13.6563L177.068 15.6373V25.8348L175.052 27.9411H181.168V10.9473H183.638V7.32541H181.174Z" fill="white"/>
</svg>
