<svg width="24" height="24" viewBox="0 0 24 24" fill="none" xmlns="http://www.w3.org/2000/svg">
<path fill-rule="evenodd" clip-rule="evenodd" d="M9.5 5.5C9.5 4.11929 10.6193 3 12 3C13.3807 3 14.5 4.11929 14.5 5.5V12C14.5 13.3807 13.3807 14.5 12 14.5C10.6193 14.5 9.5 13.3807 9.5 12V5.5ZM12 1C9.51472 1 7.5 3.01472 7.5 5.5V12C7.5 14.4853 9.51472 16.5 12 16.5C14.4853 16.5 16.5 14.4853 16.5 12V5.5C16.5 3.01472 14.4853 1 12 1ZM5.5 11.5C5.5 10.9477 5.05228 10.5 4.5 10.5C3.94772 10.5 3.5 10.9477 3.5 11.5C3.5 15.856 6.77693 19.4468 11 19.9418V22C11 22.5523 11.4477 23 12 23C12.5523 23 13 22.5523 13 22V19.9418C17.2231 19.4468 20.5 15.856 20.5 11.5C20.5 10.9477 20.0523 10.5 19.5 10.5C18.9477 10.5 18.5 10.9477 18.5 11.5C18.5 15.0897 15.5897 18 12 18C8.41028 18 5.5 15.0897 5.5 11.5Z" fill="#818181"/>
</svg>
